solid 
 facet normal  0.000000e+00  0.000000e+00 -1.000000e+00
   outer loop
     vertex  9.000000e+01 -5.000000e+01  0.000000e+00
     vertex -9.000000e+01 -5.000000e+01  0.000000e+00
     vertex -9.000000e+01  5.000000e+01  0.000000e+00
   endloop
 endfacet
 facet normal  0.000000e+00  0.000000e+00 -1.000000e+00
   outer loop
     vertex  9.000000e+01 -5.000000e+01  0.000000e+00
     vertex -9.000000e+01  5.000000e+01  0.000000e+00
     vertex  9.000000e+01  5.000000e+01  0.000000e+00
   endloop
 endfacet
 facet normal -7.071068e-01  0.000000e+00  7.071068e-01
   outer loop
     vertex -8.400000e+01  4.000000e+01  6.000000e+00
     vertex -8.400000e+01  5.000000e+01  6.000000e+00
     vertex -9.000000e+01  5.000000e+01  0.000000e+00
   endloop
 endfacet
 facet normal -7.071068e-01  0.000000e+00  7.071068e-01
   outer loop
     vertex -8.200000e+01 -3.900000e+01  8.000000e+00
     vertex -7.800000e+01 -3.900000e+01  1.200000e+01
     vertex -7.800000e+01  4.000000e+01  1.200000e+01
   endloop
 endfacet
 facet normal -7.071068e-01  0.000000e+00  7.071068e-01
   outer loop
     vertex -8.200000e+01 -3.900000e+01  8.000000e+00
     vertex -7.800000e+01  4.000000e+01  1.200000e+01
     vertex -8.400000e+01  4.000000e+01  6.000000e+00
   endloop
 endfacet
 facet normal -7.071068e-01  0.000000e+00  7.071068e-01
   outer loop
     vertex -9.000000e+01 -5.000000e+01  0.000000e+00
     vertex -8.200000e+01 -5.000000e+01  8.000000e+00
     vertex -8.200000e+01 -3.900000e+01  8.000000e+00
   endloop
 endfacet
 facet normal -7.071068e-01  0.000000e+00  7.071068e-01
   outer loop
     vertex -9.000000e+01 -5.000000e+01  0.000000e+00
     vertex -8.400000e+01  4.000000e+01  6.000000e+00
     vertex -9.000000e+01  5.000000e+01  0.000000e+00
   endloop
 endfacet
 facet normal -7.071068e-01  0.000000e+00  7.071068e-01
   outer loop
     vertex -9.000000e+01 -5.000000e+01  0.000000e+00
     vertex -8.200000e+01 -3.900000e+01  8.000000e+00
     vertex -8.400000e+01  4.000000e+01  6.000000e+00
   endloop
 endfacet
 facet normal  7.071068e-01 -0.000000e+00  7.071068e-01
   outer loop
     vertex  8.400000e+01  4.000000e+01  6.000000e+00
     vertex  9.000000e+01  5.000000e+01  0.000000e+00
     vertex  8.400000e+01  5.000000e+01  6.000000e+00
   endloop
 endfacet
 facet normal  7.071068e-01 -0.000000e+00  7.071068e-01
   outer loop
     vertex  9.000000e+01 -5.000000e+01  0.000000e+00
     vertex  9.000000e+01  5.000000e+01  0.000000e+00
     vertex  8.400000e+01  4.000000e+01  6.000000e+00
   endloop
 endfacet
 facet normal  7.071068e-01  0.000000e+00  7.071068e-01
   outer loop
     vertex  8.200000e+01 -3.900000e+01  8.000000e+00
     vertex  8.400000e+01  4.000000e+01  6.000000e+00
     vertex  7.800000e+01  4.000000e+01  1.200000e+01
   endloop
 endfacet
 facet normal  7.071068e-01  0.000000e+00  7.071068e-01
   outer loop
     vertex  8.200000e+01 -3.900000e+01  8.000000e+00
     vertex  9.000000e+01 -5.000000e+01  0.000000e+00
     vertex  8.400000e+01  4.000000e+01  6.000000e+00
   endloop
 endfacet
 facet normal  7.071068e-01 -0.000000e+00  7.071068e-01
   outer loop
     vertex  7.800000e+01 -3.900000e+01  1.200000e+01
     vertex  8.200000e+01 -3.900000e+01  8.000000e+00
     vertex  7.800000e+01  4.000000e+01  1.200000e+01
   endloop
 endfacet
 facet normal  7.071068e-01 -0.000000e+00  7.071068e-01
   outer loop
     vertex  8.200000e+01 -5.000000e+01  8.000000e+00
     vertex  9.000000e+01 -5.000000e+01  0.000000e+00
     vertex  8.200000e+01 -3.900000e+01  8.000000e+00
   endloop
 endfacet
 facet normal  0.000000e+00 -1.000000e+00  0.000000e+00
   outer loop
     vertex  9.000000e+01 -5.000000e+01  0.000000e+00
     vertex -8.200000e+01 -5.000000e+01  8.000000e+00
     vertex -9.000000e+01 -5.000000e+01  0.000000e+00
   endloop
 endfacet
 facet normal  0.000000e+00 -1.000000e+00  0.000000e+00
   outer loop
     vertex  9.000000e+01 -5.000000e+01  0.000000e+00
     vertex  8.200000e+01 -5.000000e+01  8.000000e+00
     vertex -8.200000e+01 -5.000000e+01  8.000000e+00
   endloop
 endfacet
 facet normal  0.000000e+00  1.000000e+00  0.000000e+00
   outer loop
     vertex  9.000000e+01  5.000000e+01  0.000000e+00
     vertex -9.000000e+01  5.000000e+01  0.000000e+00
     vertex -8.400000e+01  5.000000e+01  6.000000e+00
   endloop
 endfacet
 facet normal  0.000000e+00  1.000000e+00  0.000000e+00
   outer loop
     vertex  9.000000e+01  5.000000e+01  0.000000e+00
     vertex -8.400000e+01  5.000000e+01  6.000000e+00
     vertex  8.400000e+01  5.000000e+01  6.000000e+00
   endloop
 endfacet
 facet normal -0.000000e+00 -1.000000e+00  0.000000e+00
   outer loop
     vertex  1.480000e+01 -3.900000e+01  9.000000e+00
     vertex -7.800000e+01 -3.900000e+01  1.200000e+01
     vertex -8.200000e+01 -3.900000e+01  8.000000e+00
   endloop
 endfacet
 facet normal -0.000000e+00 -1.000000e+00 -0.000000e+00
   outer loop
     vertex  1.480000e+01 -3.900000e+01  1.200000e+01
     vertex -7.800000e+01 -3.900000e+01  1.200000e+01
     vertex  1.480000e+01 -3.900000e+01  9.000000e+00
   endloop
 endfacet
 facet normal -0.000000e+00 -1.000000e+00  0.000000e+00
   outer loop
     vertex  7.800000e+01 -3.900000e+01  1.200000e+01
     vertex  2.420000e+01 -3.900000e+01  1.200000e+01
     vertex  2.420000e+01 -3.900000e+01  9.000000e+00
   endloop
 endfacet
 facet normal  0.000000e+00 -1.000000e+00 -0.000000e+00
   outer loop
     vertex  7.800000e+01 -3.900000e+01  1.200000e+01
     vertex  2.420000e+01 -3.900000e+01  9.000000e+00
     vertex  8.200000e+01 -3.900000e+01  8.000000e+00
   endloop
 endfacet
 facet normal  0.000000e+00 -1.000000e+00  0.000000e+00
   outer loop
     vertex  8.200000e+01 -3.900000e+01  8.000000e+00
     vertex  1.480000e+01 -3.900000e+01  9.000000e+00
     vertex -8.200000e+01 -3.900000e+01  8.000000e+00
   endloop
 endfacet
 facet normal  0.000000e+00 -1.000000e+00  0.000000e+00
   outer loop
     vertex  8.200000e+01 -3.900000e+01  8.000000e+00
     vertex  2.420000e+01 -3.900000e+01  9.000000e+00
     vertex  1.480000e+01 -3.900000e+01  9.000000e+00
   endloop
 endfacet
 facet normal  0.000000e+00  0.000000e+00  1.000000e+00
   outer loop
     vertex  8.200000e+01 -3.900000e+01  8.000000e+00
     vertex -8.200000e+01 -3.900000e+01  8.000000e+00
     vertex -8.200000e+01 -5.000000e+01  8.000000e+00
   endloop
 endfacet
 facet normal  0.000000e+00  0.000000e+00  1.000000e+00
   outer loop
     vertex  8.200000e+01 -3.900000e+01  8.000000e+00
     vertex -8.200000e+01 -5.000000e+01  8.000000e+00
     vertex  8.200000e+01 -5.000000e+01  8.000000e+00
   endloop
 endfacet
 facet normal  0.000000e+00  0.000000e+00  1.000000e+00
   outer loop
     vertex  8.400000e+01  5.000000e+01  6.000000e+00
     vertex -8.400000e+01  5.000000e+01  6.000000e+00
     vertex -8.400000e+01  4.000000e+01  6.000000e+00
   endloop
 endfacet
 facet normal  0.000000e+00  0.000000e+00  1.000000e+00
   outer loop
     vertex  8.400000e+01  5.000000e+01  6.000000e+00
     vertex -8.400000e+01  4.000000e+01  6.000000e+00
     vertex  8.400000e+01  4.000000e+01  6.000000e+00
   endloop
 endfacet
 facet normal  0.000000e+00  1.000000e+00  0.000000e+00
   outer loop
     vertex  1.480000e+01  4.000000e+01  9.000000e+00
     vertex -8.400000e+01  4.000000e+01  6.000000e+00
     vertex -7.800000e+01  4.000000e+01  1.200000e+01
   endloop
 endfacet
 facet normal  0.000000e+00  1.000000e+00  0.000000e+00
   outer loop
     vertex  1.480000e+01  4.000000e+01  1.200000e+01
     vertex  1.480000e+01  4.000000e+01  9.000000e+00
     vertex -7.800000e+01  4.000000e+01  1.200000e+01
   endloop
 endfacet
 facet normal  0.000000e+00  1.000000e+00  0.000000e+00
   outer loop
     vertex  7.800000e+01  4.000000e+01  1.200000e+01
     vertex  2.420000e+01  4.000000e+01  9.000000e+00
     vertex  2.420000e+01  4.000000e+01  1.200000e+01
   endloop
 endfacet
 facet normal  0.000000e+00  1.000000e+00  0.000000e+00
   outer loop
     vertex  7.800000e+01  4.000000e+01  1.200000e+01
     vertex  8.400000e+01  4.000000e+01  6.000000e+00
     vertex  2.420000e+01  4.000000e+01  9.000000e+00
   endloop
 endfacet
 facet normal  0.000000e+00  1.000000e+00  0.000000e+00
   outer loop
     vertex  8.400000e+01  4.000000e+01  6.000000e+00
     vertex -8.400000e+01  4.000000e+01  6.000000e+00
     vertex  1.480000e+01  4.000000e+01  9.000000e+00
   endloop
 endfacet
 facet normal  0.000000e+00  1.000000e+00  0.000000e+00
   outer loop
     vertex  8.400000e+01  4.000000e+01  6.000000e+00
     vertex  1.480000e+01  4.000000e+01  9.000000e+00
     vertex  2.420000e+01  4.000000e+01  9.000000e+00
   endloop
 endfacet
 facet normal  0.000000e+00  0.000000e+00  1.000000e+00
   outer loop
     vertex -7.800000e+01 -3.900000e+01  1.200000e+01
     vertex  1.480000e+01 -3.900000e+01  1.200000e+01
     vertex  1.480000e+01  4.000000e+01  1.200000e+01
   endloop
 endfacet
 facet normal  0.000000e+00  0.000000e+00  1.000000e+00
   outer loop
     vertex -7.800000e+01 -3.900000e+01  1.200000e+01
     vertex  1.480000e+01  4.000000e+01  1.200000e+01
     vertex -7.800000e+01  4.000000e+01  1.200000e+01
   endloop
 endfacet
 facet normal  0.000000e+00  0.000000e+00  1.000000e+00
   outer loop
     vertex  2.420000e+01 -3.900000e+01  1.200000e+01
     vertex  7.800000e+01 -3.900000e+01  1.200000e+01
     vertex  7.800000e+01  4.000000e+01  1.200000e+01
   endloop
 endfacet
 facet normal  0.000000e+00  0.000000e+00  1.000000e+00
   outer loop
     vertex  2.420000e+01 -3.900000e+01  1.200000e+01
     vertex  7.800000e+01  4.000000e+01  1.200000e+01
     vertex  2.420000e+01  4.000000e+01  1.200000e+01
   endloop
 endfacet
 facet normal -1.000000e+00  0.000000e+00  0.000000e+00
   outer loop
     vertex  2.420000e+01 -3.900000e+01  9.000000e+00
     vertex  2.420000e+01  4.000000e+01  1.200000e+01
     vertex  2.420000e+01  4.000000e+01  9.000000e+00
   endloop
 endfacet
 facet normal -1.000000e+00  0.000000e+00  0.000000e+00
   outer loop
     vertex  2.420000e+01 -3.900000e+01  1.200000e+01
     vertex  2.420000e+01  4.000000e+01  1.200000e+01
     vertex  2.420000e+01 -3.900000e+01  9.000000e+00
   endloop
 endfacet
 facet normal  0.000000e+00  0.000000e+00  1.000000e+00
   outer loop
     vertex  2.420000e+01  4.000000e+01  9.000000e+00
     vertex  1.480000e+01  4.000000e+01  9.000000e+00
     vertex  1.480000e+01 -3.900000e+01  9.000000e+00
   endloop
 endfacet
 facet normal  0.000000e+00  0.000000e+00  1.000000e+00
   outer loop
     vertex  2.420000e+01  4.000000e+01  9.000000e+00
     vertex  1.480000e+01 -3.900000e+01  9.000000e+00
     vertex  2.420000e+01 -3.900000e+01  9.000000e+00
   endloop
 endfacet
 facet normal  1.000000e+00  0.000000e+00  0.000000e+00
   outer loop
     vertex  1.480000e+01 -3.900000e+01  9.000000e+00
     vertex  1.480000e+01  4.000000e+01  9.000000e+00
     vertex  1.480000e+01  4.000000e+01  1.200000e+01
   endloop
 endfacet
 facet normal  1.000000e+00 -0.000000e+00  0.000000e+00
   outer loop
     vertex  1.480000e+01 -3.900000e+01  1.200000e+01
     vertex  1.480000e+01 -3.900000e+01  9.000000e+00
     vertex  1.480000e+01  4.000000e+01  1.200000e+01
   endloop
 endfacet
endsolid
